<svg width="1024" height="1024" viewBox="0 0 1024 1024" fill="none" xmlns="http://www.w3.org/2000/svg">
<path d="M759 214.4L669.899 163V448.938L401 604.025V886.446L490.101 938V655.425L669.899 551.739V860.012L759 808.807V214.4Z" fill="white"/>
<path d="M535 938L624 886.394V630L535 681.413V938Z" fill="white"/>
<path d="M489 86L401 137.285V397L489 345.758V86Z" fill="white"/>
<path d="M221 783V241L147.103 283.67C137.752 289.101 132 299.079 132 309.876V714.145C132 724.942 137.752 734.919 147.103 740.35L221 783Z" fill="white"/>
<path d="M267 215.054V808.849L355.857 860V578.376L624 423.453V137.346L535.164 86V372.086L355.857 475.662V163.708L267 215.054Z" fill="white"/>
<path d="M892 714.145V309.876C892 299.079 886.244 289.101 876.884 283.67L803 241V783L876.884 740.35C886.244 734.919 892 724.942 892 714.145Z" fill="white"/>
</svg>
